<svg width="27" height="36" viewBox="0 0 27 36" fill="none" xmlns="http://www.w3.org/2000/svg">
<path d="M13.0859 0.0417978C11.4758 0.22461 10.5547 0.421485 9.51407 0.808204C6.75782 1.8418 4.45157 3.7332 2.8836 6.25742C1.40703 8.64102 0.725004 11.7277 1.0625 14.484C1.61094 18.9207 4.775 25.0379 10.0203 31.816C11.2578 33.4191 12.8539 35.3387 13.2195 35.6691C13.7047 36.1051 14.2953 36.1051 14.7805 35.6691C15.1461 35.3387 16.7422 33.4191 17.9797 31.816C22.6977 25.7199 25.7281 20.1793 26.6844 15.8762C26.9305 14.7723 27.0078 14.0551 27.0078 12.902C27.0008 9.52695 25.6508 6.29961 23.2109 3.8668C21.2 1.84883 18.8305 0.632423 16.0391 0.175392C15.3781 0.0699228 13.5641 -0.0144522 13.0859 0.0417978ZM14.8227 6.5457C17.4453 6.89727 19.618 8.78164 20.3281 11.3199C20.518 11.9879 20.5883 13.3309 20.4758 14.0621C20.1453 16.1434 18.7813 17.9715 16.8477 18.9137C15.7086 19.4691 14.5414 19.6801 13.3531 19.5465C12.425 19.441 11.9539 19.3074 11.1523 18.9137C9.21875 17.9715 7.85469 16.1434 7.52422 14.0621C7.41172 13.3309 7.48203 11.9879 7.67188 11.3199C8.55078 8.18399 11.6516 6.10977 14.8227 6.5457Z" fill="#479ECF"/>
</svg>
