<svg width="27" height="36" viewBox="0 0 27 36" fill="none" xmlns="http://www.w3.org/2000/svg">
<path d="M12.1083 0.0183603C10.4981 0.201173 9.57703 0.398048 8.53641 0.784767C5.78016 1.81836 3.4739 3.70977 1.90594 6.23399C0.429374 8.61758 -0.252658 11.7043 0.0848424 14.4605C0.63328 18.8973 3.79734 25.0145 9.04266 31.7926C10.2802 33.3957 11.8762 35.3152 12.2419 35.6457C12.727 36.0816 13.3177 36.0816 13.8028 35.6457C14.1684 35.3152 15.7645 33.3957 17.002 31.7926C21.72 25.6965 24.7505 20.1559 25.7067 15.8527C25.9528 14.7488 26.0302 14.0316 26.0302 12.8785C26.0231 9.50352 24.6731 6.27617 22.2333 3.84336C20.2223 1.82539 17.8528 0.608985 15.0614 0.151954C14.4005 0.0464853 12.5864 -0.0378897 12.1083 0.0183603ZM13.845 6.52227C16.4677 6.87383 18.6403 8.7582 19.3505 11.2965C19.5403 11.9645 19.6106 13.3074 19.4981 14.0387C19.1677 16.1199 17.8036 17.948 15.87 18.8902C14.7309 19.4457 13.5637 19.6566 12.3755 19.523C11.4473 19.4176 10.9762 19.284 10.1747 18.8902C8.24109 17.948 6.87703 16.1199 6.54656 14.0387C6.43406 13.3074 6.50437 11.9645 6.69422 11.2965C7.57312 8.16055 10.6739 6.08633 13.845 6.52227Z" fill="#E53F31"/>
</svg>
